<?xml version="1.0" encoding="UTF-8"?><svg id="_Ñëîé_1" xmlns="http://www.w3.org/2000/svg" xmlns:xlink="http://www.w3.org/1999/xlink" viewBox="0 0 1000 385"><defs><style>.cls-1{fill:url(#linear-gradient-75);}.cls-2{fill:url(#linear-gradient-2);}.cls-3{fill:url(#linear-gradient-51);}.cls-4{fill:url(#linear-gradient-17);}.cls-5{fill:url(#linear-gradient-43);}.cls-6{fill:url(#linear-gradient-15);}.cls-7{fill:url(#linear-gradient-58);}.cls-8{fill:url(#linear-gradient-69);}.cls-9{fill:url(#linear-gradient-18);}.cls-10{fill:url(#linear-gradient-56);}.cls-11{fill:url(#linear-gradient-40);}.cls-12{fill:url(#linear-gradient-52);}.cls-13{fill:url(#linear-gradient-28);}.cls-14{fill:url(#linear-gradient-14);}.cls-15{fill:url(#linear-gradient-36);}.cls-16{fill:url(#linear-gradient-20);}.cls-17{fill:url(#linear-gradient-6);}.cls-18{fill:url(#linear-gradient-53);}.cls-19{fill:url(#linear-gradient-60);}.cls-20{fill:url(#linear-gradient-35);}.cls-21{fill:url(#linear-gradient-48);}.cls-22{fill:url(#linear-gradient-32);}.cls-23{fill:url(#linear-gradient-11);}.cls-24{fill:url(#linear-gradient-50);}.cls-25{fill:url(#linear-gradient-63);}.cls-26{fill:url(#linear-gradient-67);}.cls-27{fill:url(#linear-gradient-39);}.cls-28{fill:url(#linear-gradient-10);}.cls-29{fill:url(#linear-gradient-59);}.cls-30{fill:url(#linear-gradient-49);}.cls-31{fill:url(#linear-gradient-37);}.cls-32{fill:url(#linear-gradient-16);}.cls-33{fill:url(#linear-gradient-31);}.cls-34{fill:url(#linear-gradient-61);}.cls-35{fill:url(#linear-gradient-68);}.cls-36{fill:url(#linear-gradient-62);}.cls-37{fill:url(#linear-gradient-41);}.cls-38{fill:url(#linear-gradient-21);}.cls-39{fill:url(#linear-gradient-72);}.cls-40{fill:url(#linear-gradient-25);}.cls-41{fill:url(#linear-gradient-5);}.cls-42{fill:url(#linear-gradient-64);}.cls-43{fill:url(#linear-gradient-54);}.cls-44{fill:url(#linear-gradient-45);}.cls-45{fill:url(#linear-gradient-55);}.cls-46{clip-path:url(#clippath);}.cls-47{fill:url(#linear-gradient-34);}.cls-48{fill:url(#linear-gradient-65);}.cls-49{fill:url(#linear-gradient-70);}.cls-50{fill:none;}.cls-51{fill:url(#linear-gradient-7);}.cls-52{fill:url(#linear-gradient-66);}.cls-53{fill:url(#linear-gradient-24);}.cls-54{fill:url(#linear-gradient-73);}.cls-55{fill:url(#linear-gradient-9);}.cls-56{fill:url(#linear-gradient-22);}.cls-57{fill:url(#linear-gradient-74);}.cls-58{fill:url(#linear-gradient-42);}.cls-59{fill:url(#linear-gradient-3);}.cls-60{fill:url(#linear-gradient);}.cls-61{fill:url(#linear-gradient-27);}.cls-62{fill:url(#linear-gradient-33);}.cls-63{fill:url(#linear-gradient-38);}.cls-64{fill:url(#linear-gradient-29);}.cls-65{fill:url(#linear-gradient-30);}.cls-66{fill:url(#linear-gradient-23);}.cls-67{fill:url(#linear-gradient-19);}.cls-68{fill:url(#linear-gradient-71);}.cls-69{fill:url(#linear-gradient-4);}.cls-70{fill:url(#linear-gradient-8);}.cls-71{fill:url(#linear-gradient-44);}.cls-72{fill:url(#linear-gradient-57);}.cls-73{fill:url(#linear-gradient-47);}.cls-74{fill:url(#linear-gradient-46);}.cls-75{fill:url(#linear-gradient-12);}.cls-76{fill:url(#linear-gradient-13);}.cls-77{fill:url(#linear-gradient-26);}</style><clipPath id="clippath"><rect class="cls-50" x="0" y="0" width="1000" height="385"/></clipPath><linearGradient id="linear-gradient" x1="1005.67" y1="-3.45" x2="462.62" y2="587.61" gradientUnits="userSpaceOnUse"><stop offset="0" stop-color="#fa9add"/><stop offset=".3" stop-color="#ab1f79"/><stop offset=".6" stop-color="#5874b0"/><stop offset=".84" stop-color="#59e2ed"/><stop offset="1" stop-color="#a9dae6"/></linearGradient><linearGradient id="linear-gradient-2" x1="964.76" y1="-41.04" x2="421.71" y2="550.01" xlink:href="#linear-gradient"/><linearGradient id="linear-gradient-3" x1="913.01" y1="-88.58" x2="369.96" y2="502.47" xlink:href="#linear-gradient"/><linearGradient id="linear-gradient-4" x1="930.82" y1="-72.23" x2="387.77" y2="518.83" xlink:href="#linear-gradient"/><linearGradient id="linear-gradient-5" x1="956.01" y1="-49.09" x2="412.95" y2="541.97" xlink:href="#linear-gradient"/><linearGradient id="linear-gradient-6" x1="943.58" y1="-60.5" x2="400.53" y2="530.56" xlink:href="#linear-gradient"/><linearGradient id="linear-gradient-7" x1="922.89" y1="-79.51" x2="379.84" y2="511.55" xlink:href="#linear-gradient"/><linearGradient id="linear-gradient-8" x1="940.88" y1="-62.98" x2="397.82" y2="528.08" xlink:href="#linear-gradient"/><linearGradient id="linear-gradient-9" x1="1028.31" y1="17.35" x2="485.26" y2="608.41" xlink:href="#linear-gradient"/><linearGradient id="linear-gradient-10" x1="898.34" y1="-102.07" x2="355.28" y2="488.99" xlink:href="#linear-gradient"/><linearGradient id="linear-gradient-11" x1="1019.46" y1="9.21" x2="476.41" y2="600.27" xlink:href="#linear-gradient"/><linearGradient id="linear-gradient-12" x1="959.35" y1="-46.02" x2="416.29" y2="545.04" xlink:href="#linear-gradient"/><linearGradient id="linear-gradient-13" x1="958.77" y1="-46.55" x2="415.71" y2="544.51" xlink:href="#linear-gradient"/><linearGradient id="linear-gradient-14" x1="973.76" y1="-32.77" x2="430.71" y2="558.28" xlink:href="#linear-gradient"/><linearGradient id="linear-gradient-15" x1="918.34" y1="-83.69" x2="375.29" y2="507.37" xlink:href="#linear-gradient"/><linearGradient id="linear-gradient-16" x1="993.86" y1="-14.31" x2="450.8" y2="576.75" xlink:href="#linear-gradient"/><linearGradient id="linear-gradient-17" x1="923.85" y1="-78.63" x2="380.8" y2="512.43" xlink:href="#linear-gradient"/><linearGradient id="linear-gradient-18" x1="978.87" y1="-28.08" x2="435.82" y2="562.98" xlink:href="#linear-gradient"/><linearGradient id="linear-gradient-19" x1="933.24" y1="-70" x2="390.19" y2="521.06" xlink:href="#linear-gradient"/><linearGradient id="linear-gradient-20" x1="935.77" y1="-67.68" x2="392.71" y2="523.38" xlink:href="#linear-gradient"/><linearGradient id="linear-gradient-21" x1="907.66" y1="-93.51" x2="364.6" y2="497.55" xlink:href="#linear-gradient"/><linearGradient id="linear-gradient-22" x1="963.23" y1="-42.46" x2="420.17" y2="548.61" xlink:href="#linear-gradient"/><linearGradient id="linear-gradient-23" x1="985.73" y1="-21.78" x2="442.67" y2="569.28" xlink:href="#linear-gradient"/><linearGradient id="linear-gradient-24" x1="983.05" y1="-24.24" x2="440" y2="566.82" xlink:href="#linear-gradient"/><linearGradient id="linear-gradient-25" x1="924.22" y1="-78.29" x2="381.17" y2="512.77" xlink:href="#linear-gradient"/><linearGradient id="linear-gradient-26" x1="1105.08" y1="87.88" x2="562.03" y2="678.94" xlink:href="#linear-gradient"/><linearGradient id="linear-gradient-27" x1="1081.63" y1="66.34" x2="538.58" y2="657.39" xlink:href="#linear-gradient"/><linearGradient id="linear-gradient-28" x1="1048.46" y1="35.86" x2="505.41" y2="626.92" xlink:href="#linear-gradient"/><linearGradient id="linear-gradient-29" x1="1064.83" y1="50.9" x2="521.77" y2="641.95" xlink:href="#linear-gradient"/><linearGradient id="linear-gradient-30" x1="1092.07" y1="75.93" x2="549.02" y2="666.99" xlink:href="#linear-gradient"/><linearGradient id="linear-gradient-31" x1="1068.38" y1="54.16" x2="525.33" y2="645.22" xlink:href="#linear-gradient"/><linearGradient id="linear-gradient-32" x1="1044.06" y1="31.82" x2="501.01" y2="622.88" xlink:href="#linear-gradient"/><linearGradient id="linear-gradient-33" x1="1044.82" y1="32.52" x2="501.77" y2="623.58" xlink:href="#linear-gradient"/><linearGradient id="linear-gradient-34" x1="1025.08" y1="14.38" x2="482.03" y2="605.44" xlink:href="#linear-gradient"/><linearGradient id="linear-gradient-35" x1="1098.06" y1="81.43" x2="555.01" y2="672.49" xlink:href="#linear-gradient"/><linearGradient id="linear-gradient-36" x1="885.9" y1="-113.5" x2="342.85" y2="477.56" xlink:href="#linear-gradient"/><linearGradient id="linear-gradient-37" x1="1090.81" y1="74.77" x2="547.76" y2="665.83" xlink:href="#linear-gradient"/><linearGradient id="linear-gradient-38" x1="1018.35" y1="8.2" x2="475.3" y2="599.25" xlink:href="#linear-gradient"/><linearGradient id="linear-gradient-39" x1="962.41" y1="-43.21" x2="419.35" y2="547.85" xlink:href="#linear-gradient"/><linearGradient id="linear-gradient-40" x1="880.7" y1="-118.28" x2="337.64" y2="472.78" xlink:href="#linear-gradient"/><linearGradient id="linear-gradient-41" x1="1038.95" y1="27.12" x2="495.9" y2="618.18" xlink:href="#linear-gradient"/><linearGradient id="linear-gradient-42" x1="813.82" y1="-179.73" x2="270.76" y2="411.33" xlink:href="#linear-gradient"/><linearGradient id="linear-gradient-43" x1="680.42" y1="-302.29" x2="137.36" y2="288.77" xlink:href="#linear-gradient"/><linearGradient id="linear-gradient-44" x1="706.05" y1="-278.74" x2="163" y2="312.32" xlink:href="#linear-gradient"/><linearGradient id="linear-gradient-45" x1="742.31" y1="-245.42" x2="199.26" y2="345.63" xlink:href="#linear-gradient"/><linearGradient id="linear-gradient-46" x1="724.42" y1="-261.86" x2="181.37" y2="329.2" xlink:href="#linear-gradient"/><linearGradient id="linear-gradient-47" x1="694.63" y1="-289.23" x2="151.58" y2="301.83" xlink:href="#linear-gradient"/><linearGradient id="linear-gradient-48" x1="720.53" y1="-265.44" x2="177.48" y2="325.62" xlink:href="#linear-gradient"/><linearGradient id="linear-gradient-49" x1="846.41" y1="-149.78" x2="303.36" y2="441.28" xlink:href="#linear-gradient"/><linearGradient id="linear-gradient-50" x1="833.67" y1="-161.49" x2="290.62" y2="429.57" xlink:href="#linear-gradient"/><linearGradient id="linear-gradient-51" x1="747.12" y1="-241" x2="204.07" y2="350.05" xlink:href="#linear-gradient"/><linearGradient id="linear-gradient-52" x1="746.29" y1="-241.77" x2="203.23" y2="349.29" gradientTransform="translate(37 -93.31) rotate(13.24)" xlink:href="#linear-gradient"/><linearGradient id="linear-gradient-53" x1="767.87" y1="-221.94" x2="224.82" y2="369.12" xlink:href="#linear-gradient"/><linearGradient id="linear-gradient-54" x1="688.08" y1="-295.25" x2="145.03" y2="295.81" xlink:href="#linear-gradient"/><linearGradient id="linear-gradient-55" x1="696.01" y1="-287.96" x2="152.96" y2="303.1" xlink:href="#linear-gradient"/><linearGradient id="linear-gradient-56" x1="775.23" y1="-215.19" x2="232.17" y2="375.88" xlink:href="#linear-gradient"/><linearGradient id="linear-gradient-57" x1="709.53" y1="-275.54" x2="166.48" y2="315.52" xlink:href="#linear-gradient"/><linearGradient id="linear-gradient-58" x1="672.7" y1="-309.38" x2="129.65" y2="281.68" xlink:href="#linear-gradient"/><linearGradient id="linear-gradient-59" x1="752.7" y1="-235.88" x2="209.65" y2="355.18" xlink:href="#linear-gradient"/><linearGradient id="linear-gradient-60" x1="785.11" y1="-206.11" x2="242.05" y2="384.95" xlink:href="#linear-gradient"/><linearGradient id="linear-gradient-61" x1="781.25" y1="-209.65" x2="238.2" y2="381.41" xlink:href="#linear-gradient"/><linearGradient id="linear-gradient-62" x1="956.94" y1="-48.23" x2="413.89" y2="542.83" xlink:href="#linear-gradient"/><linearGradient id="linear-gradient-63" x1="923.18" y1="-79.25" x2="380.13" y2="511.81" xlink:href="#linear-gradient"/><linearGradient id="linear-gradient-64" x1="898.98" y1="-101.48" x2="355.93" y2="489.58" xlink:href="#linear-gradient"/><linearGradient id="linear-gradient-65" x1="938.21" y1="-65.44" x2="395.16" y2="525.62" xlink:href="#linear-gradient"/><linearGradient id="linear-gradient-66" x1="904.1" y1="-96.77" x2="361.05" y2="494.29" xlink:href="#linear-gradient"/><linearGradient id="linear-gradient-67" x1="869.09" y1="-128.94" x2="326.03" y2="462.12" xlink:href="#linear-gradient"/><linearGradient id="linear-gradient-68" x1="870.19" y1="-127.93" x2="327.13" y2="463.13" xlink:href="#linear-gradient"/><linearGradient id="linear-gradient-69" x1="841.76" y1="-154.05" x2="298.71" y2="437.01" xlink:href="#linear-gradient"/><linearGradient id="linear-gradient-70" x1="946.84" y1="-57.51" x2="403.78" y2="533.56" xlink:href="#linear-gradient"/><linearGradient id="linear-gradient-71" x1="936.4" y1="-67.1" x2="393.34" y2="523.95" xlink:href="#linear-gradient"/><linearGradient id="linear-gradient-72" x1="967.1" y1="-38.9" x2="424.04" y2="552.16" xlink:href="#linear-gradient"/><linearGradient id="linear-gradient-73" x1="633.88" y1="-345.05" x2="90.83" y2="246.01" xlink:href="#linear-gradient"/><linearGradient id="linear-gradient-74" x1="861.74" y1="-135.7" x2="318.68" y2="455.36" xlink:href="#linear-gradient"/><linearGradient id="linear-gradient-75" x1="878.94" y1="-119.89" x2="335.89" y2="471.17" xlink:href="#linear-gradient"/></defs><g class="cls-46"><rect class="cls-50" x="0" y="0" width="1000" height="385"/><g><g><g><g><polygon class="cls-60" points="660.36 269.88 616.57 295.16 616.57 327.64 617.25 327.64 617.25 295.56 660.36 270.67 703.47 295.56 703.47 355.02 747.26 380.31 791.05 355.02 791.05 322.54 790.37 322.54 790.37 354.63 747.26 379.51 704.16 354.63 704.15 295.16 660.36 269.88"/><polygon class="cls-2" points="850.56 116.17 850.38 116.27 795.74 84.72 795.74 83.93 850.38 115.48 901.57 85.93 901.57 86.72 850.56 116.17"/><polygon class="cls-59" points="589.04 275.51 588.76 275.35 546.28 299.88 546.28 299.09 588.76 274.56 589.04 274.72 589.04 275.51"/><polygon class="cls-69" points="721.1 221.08 661.35 186.58 601.59 221.08 600.25 221.08 600.25 221.06 661.18 185.89 661.35 185.79 722.27 220.96 722.44 221.06 722.44 221.08 721.1 221.08"/><polygon class="cls-41" points="588.76 375.69 546.28 351.16 546.28 350.37 588.76 374.9 630.66 350.72 630.66 351.51 588.76 375.69"/><polygon class="cls-17" points="527.63 290.44 527.63 360.99 527.8 361.09 588.73 396.27 588.9 396.17 649.83 360.99 649.83 320.74 649.14 320.74 649.14 360.6 588.73 395.48 528.32 360.6 528.32 290.84 587.57 256.62 587.57 255.83 527.63 290.44"/><polygon class="cls-51" points="660.86 103.91 660.86 174.46 661.03 174.56 721.96 209.74 722.13 209.64 783.06 174.46 783.06 134.21 782.37 134.21 782.37 174.06 721.96 208.94 661.55 174.06 661.55 104.3 720.8 70.09 720.8 69.3 660.86 103.91"/><polygon class="cls-70" points="693.81 242.41 660.83 223.37 627.75 242.47 627.75 279.95 627.07 279.95 627.07 242.08 660.83 222.58 693.81 241.62 693.81 242.41"/><polygon class="cls-55" points="824.27 275.91 791.29 256.87 758.21 275.97 758.21 313.45 757.53 313.45 757.53 275.58 791.29 256.08 824.27 275.12 824.27 275.91"/><polygon class="cls-28" points="784.95 80.33 784.95 79.54 730.47 48.09 730.3 47.99 679.12 77.54 679.12 78.33 730.3 48.78 784.95 80.33"/><polygon class="cls-23" points="845.23 257.84 845.23 257.05 790.75 225.59 790.58 225.5 739.4 255.04 739.4 255.83 790.58 226.29 845.23 257.84"/></g><g><path class="cls-75" d="M620.15,326.69c0-1.79-1.45-3.24-3.24-3.24s-3.24,1.45-3.24,3.24,1.45,3.24,3.24,3.24,3.24-1.45,3.24-3.24Z"/><path class="cls-76" d="M698.8,242.15c0-2.92-2.37-5.29-5.29-5.29s-5.29,2.37-5.29,5.29,2.37,5.29,5.29,5.29,5.29-2.37,5.29-5.29Z"/><path class="cls-14" d="M653.65,320.05c0-2.24-1.82-4.06-4.06-4.06s-4.06,1.82-4.06,4.06,1.82,4.06,4.06,4.06,4.06-1.82,4.06-4.06Z"/><path class="cls-6" d="M594.33,274.72c0-2.92-2.37-5.29-5.29-5.29s-5.29,2.37-5.29,5.29,2.37,5.29,5.29,5.29,5.29-2.37,5.29-5.29Z"/><path class="cls-32" d="M906.72,86.29c0-2.92-2.37-5.29-5.29-5.29s-5.29,2.37-5.29,5.29,2.37,5.29,5.29,5.29,5.29-2.37,5.29-5.29Z"/><path class="cls-4" d="M564.17,314.8c0-1-.81-1.81-1.81-1.81s-1.81,.81-1.81,1.81,.81,1.81,1.81,1.81,1.81-.81,1.81-1.81Z"/><path class="cls-9" d="M632.41,350.97c0-1-.81-1.81-1.81-1.81s-1.81,.81-1.81,1.81,.81,1.81,1.81,1.81,1.81-.81,1.81-1.81Z"/><path class="cls-67" d="M548.09,351.16c0-1-.81-1.81-1.81-1.81s-1.81,.81-1.81,1.81,.81,1.81,1.81,1.81,1.81-.81,1.81-1.81Z"/><path class="cls-16" d="M797.54,84.72c0-1-.81-1.81-1.81-1.81s-1.81,.81-1.81,1.81,.81,1.81,1.81,1.81,1.81-.81,1.81-1.81Z"/><path class="cls-38" d="M548.21,299.68c0-1-.81-1.81-1.81-1.81s-1.81,.81-1.81,1.81,.81,1.81,1.81,1.81,1.81-.81,1.81-1.81Z"/><circle class="cls-56" cx="721.1" cy="221.08" r="2.66"/><path class="cls-66" d="M795.42,190.37c0-2.54-2.06-4.6-4.6-4.6s-4.6,2.06-4.6,4.6,2.06,4.6,4.6,4.6,4.6-2.06,4.6-4.6Z"/></g></g><g><g><polygon class="cls-53" points="857.37 247.56 915.04 214.26 915.04 171.48 914.14 171.48 914.14 213.74 857.37 246.51 800.6 213.74 800.59 135.42 742.92 102.12 685.24 135.42 685.24 178.2 686.14 178.2 686.14 135.94 742.92 103.17 799.69 135.94 799.7 214.26 857.37 247.56"/><polygon class="cls-40" points="742.69 75.94 742.92 75.81 814.89 117.36 814.89 118.4 742.92 76.85 675.51 115.76 675.51 114.72 742.69 75.94"/><polygon class="cls-77" points="951.29 240.14 951.66 240.35 1007.61 208.04 1007.61 209.09 951.66 241.39 951.29 241.18 951.29 240.14"/><polygon class="cls-61" points="777.38 311.83 856.07 357.26 934.76 311.83 936.54 311.83 936.54 311.84 856.29 358.17 856.07 358.3 775.83 311.98 775.6 311.84 775.6 311.83 777.38 311.83"/><polygon class="cls-13" points="951.66 108.2 1007.61 140.5 1007.61 141.54 951.66 109.24 896.49 141.09 896.49 140.05 951.66 108.2"/><polygon class="cls-64" points="1032.17 220.47 1032.17 127.56 1031.94 127.43 951.7 81.1 951.48 81.23 871.24 127.56 871.24 180.57 872.14 180.57 872.14 128.08 951.7 82.14 1031.27 128.08 1031.27 219.95 953.22 265.01 953.22 266.05 1032.17 220.47"/><polygon class="cls-65" points="856.71 466.13 856.71 373.22 856.48 373.09 776.24 326.76 776.02 326.89 695.78 373.22 695.78 426.23 696.68 426.23 696.68 373.74 776.24 327.8 855.81 373.74 855.81 465.61 777.76 510.67 777.76 511.71 856.71 466.13"/><polygon class="cls-33" points="813.31 283.72 856.75 308.8 900.31 283.65 900.31 234.29 901.22 234.29 901.22 284.17 856.75 309.84 813.31 284.76 813.31 283.72"/></g><g><path class="cls-22" d="M910.32,172.74c0,2.35,1.91,4.26,4.26,4.26s4.26-1.91,4.26-4.26-1.91-4.26-4.26-4.26-4.26,1.91-4.26,4.26Z"/><path class="cls-62" d="M806.74,284.07c0,3.85,3.12,6.97,6.97,6.97s6.97-3.12,6.97-6.97-3.12-6.97-6.97-6.97-6.97,3.12-6.97,6.97Z"/><path class="cls-47" d="M866.21,181.48c0,2.95,2.39,5.34,5.34,5.34s5.34-2.39,5.34-5.34-2.39-5.34-5.34-5.34-5.34,2.39-5.34,5.34Z"/><path class="cls-20" d="M944.33,241.18c0,3.85,3.12,6.97,6.97,6.97s6.97-3.12,6.97-6.97-3.12-6.97-6.97-6.97-6.97,3.12-6.97,6.97Z"/><path class="cls-15" d="M668.73,115.29c0,3.85,3.12,6.97,6.97,6.97s6.97-3.12,6.97-6.97-3.12-6.97-6.97-6.97-6.97,3.12-6.97,6.97Z"/><path class="cls-31" d="M984.04,188.39c0,1.31,1.06,2.38,2.38,2.38s2.38-1.06,2.38-2.38-1.06-2.38-2.38-2.38-2.38,1.06-2.38,2.38Z"/><path class="cls-63" d="M894.18,140.76c0,1.31,1.06,2.38,2.38,2.38s2.38-1.06,2.38-2.38-1.06-2.38-2.38-2.38-2.38,1.06-2.38,2.38Z"/><path class="cls-27" d="M812.51,117.36c0,1.31,1.06,2.38,2.38,2.38s2.38-1.06,2.38-2.38-1.06-2.38-2.38-2.38-2.38,1.06-2.38,2.38Z"/><path class="cls-11" d="M569.44,216.68c0,1.93,1.57,3.5,3.5,3.5s3.5-1.57,3.5-3.5-1.57-3.5-3.5-3.5-3.5,1.57-3.5,3.5Z"/><path class="cls-37" d="M773.87,311.83c0,1.93,1.57,3.5,3.5,3.5s3.5-1.57,3.5-3.5-1.57-3.5-3.5-3.5-3.5,1.57-3.5,3.5Z"/></g></g></g><g><g><g><polygon class="cls-58" points="372.83 152.66 309.79 189.06 309.79 235.83 310.77 235.83 310.77 189.63 372.83 153.8 434.9 189.63 434.91 275.24 497.95 311.65 561 275.24 561 228.48 560.02 228.48 560.02 274.67 497.95 310.51 435.89 274.67 435.88 189.06 372.83 152.66"/><polygon class="cls-5" points="270.15 160.77 269.75 160.54 208.59 195.85 208.59 194.71 269.75 159.4 270.15 159.63 270.15 160.77"/><polygon class="cls-71" points="460.28 82.39 374.26 32.73 288.22 82.39 286.29 82.39 286.29 82.38 374.01 31.73 374.26 31.59 461.97 82.23 462.22 82.38 462.22 82.39 460.28 82.39"/><polygon class="cls-44" points="269.75 305.01 208.59 269.69 208.59 268.55 269.75 303.87 330.07 269.05 330.07 270.18 269.75 305.01"/><polygon class="cls-74" points="181.74 182.26 181.74 283.84 181.98 283.98 269.7 334.63 269.95 334.48 357.67 283.84 357.67 225.89 356.68 225.89 356.68 283.27 269.7 333.49 182.72 283.27 182.72 182.83 268.04 133.57 268.04 132.44 181.74 182.26"/><polygon class="cls-73" points="373.56 -86.3 373.56 15.28 373.8 15.42 461.52 66.07 461.77 65.93 549.49 15.28 549.49 -42.67 548.5 -42.67 548.5 14.71 461.52 64.93 374.54 14.71 374.54 -85.73 459.86 -134.98 459.86 -136.12 373.56 -86.3"/><polygon class="cls-21" points="421 113.12 373.51 85.7 325.88 113.2 325.88 167.16 324.9 167.16 324.9 112.63 373.51 84.56 421 111.98 421 113.12"/><polygon class="cls-30" points="608.83 161.35 561.34 133.93 513.71 161.43 513.71 215.39 512.73 215.39 512.73 160.86 561.34 132.79 608.83 160.21 608.83 161.35"/><polygon class="cls-24" points="639 135.32 639 134.18 560.57 88.9 560.32 88.76 486.63 131.3 486.63 132.44 560.32 89.9 639 135.32"/></g><g><path class="cls-3" d="M314.94,234.45c0-2.57-2.09-4.66-4.66-4.66s-4.66,2.09-4.66,4.66,2.09,4.66,4.66,4.66,4.66-2.09,4.66-4.66Z"/><circle class="cls-12" cx="420.56" cy="112.74" r="7.62" transform="translate(-14.64 99.31) rotate(-13.24)"/><path class="cls-18" d="M363.17,224.9c0-3.23-2.62-5.84-5.84-5.84s-5.84,2.62-5.84,5.84,2.62,5.84,5.84,5.84,5.84-2.62,5.84-5.84Z"/><path class="cls-43" d="M277.77,159.63c0-4.21-3.41-7.62-7.62-7.62s-7.62,3.41-7.62,7.62,3.41,7.62,7.62,7.62,7.62-3.41,7.62-7.62Z"/><path class="cls-45" d="M234.35,217.34c0-1.44-1.16-2.6-2.6-2.6s-2.6,1.16-2.6,2.6,1.16,2.6,2.6,2.6,2.6-1.16,2.6-2.6Z"/><path class="cls-10" d="M332.59,269.41c0-1.44-1.16-2.6-2.6-2.6s-2.6,1.16-2.6,2.6,1.16,2.6,2.6,2.6,2.6-1.16,2.6-2.6Z"/><path class="cls-72" d="M211.19,269.69c0-1.44-1.16-2.6-2.6-2.6s-2.6,1.16-2.6,2.6,1.16,2.6,2.6,2.6,2.6-1.16,2.6-2.6Z"/><path class="cls-7" d="M211.37,195.57c0-1.44-1.16-2.6-2.6-2.6s-2.6,1.16-2.6,2.6,1.16,2.6,2.6,2.6,2.6-1.16,2.6-2.6Z"/><path class="cls-29" d="M464.11,82.39c0-2.11-1.71-3.83-3.83-3.83s-3.83,1.71-3.83,3.83,1.71,3.83,3.83,3.83,3.83-1.71,3.83-3.83Z"/><path class="cls-19" d="M567.28,38.18c0-3.66-2.96-6.62-6.62-6.62s-6.62,2.96-6.62,6.62,2.96,6.62,6.62,6.62,6.62-2.97,6.62-6.62Z"/></g></g><g><g><polygon class="cls-34" points="656.47 120.52 739.51 72.58 739.51 10.99 738.21 10.99 738.21 71.83 656.47 119.02 574.74 71.83 574.72 -40.93 491.7 -88.87 408.66 -40.93 408.66 20.67 409.96 20.67 409.96 -40.18 491.7 -87.37 573.43 -40.18 573.44 72.58 656.47 120.52"/><polygon class="cls-36" points="791.71 109.84 792.23 110.14 872.79 63.63 872.79 65.13 792.23 111.64 791.71 111.34 791.71 109.84"/><polygon class="cls-25" points="541.31 213.05 654.6 278.47 767.91 213.05 770.46 213.05 770.46 213.08 654.93 279.78 654.6 279.97 539.08 213.27 538.75 213.08 538.75 213.05 541.31 213.05"/><polygon class="cls-42" points="908.15 81.53 908.15 -52.25 907.82 -52.43 792.3 -119.13 791.97 -118.94 676.45 -52.25 676.45 24.08 677.75 24.08 677.75 -51.5 792.3 -117.63 906.85 -51.5 906.85 80.78 794.49 145.65 794.49 147.15 908.15 81.53"/><polygon class="cls-48" points="655.52 435.22 655.52 301.44 655.2 301.26 539.68 234.56 539.35 234.74 423.83 301.44 423.83 377.77 425.12 377.77 425.12 302.19 539.68 236.06 654.23 302.19 654.23 434.47 541.86 499.34 541.86 500.84 655.52 435.22"/><polygon class="cls-52" points="593.04 172.59 655.58 208.7 718.31 172.48 718.31 101.42 719.61 101.42 719.61 173.23 655.58 210.2 593.04 174.09 593.04 172.59"/></g><g><path class="cls-26" d="M732.72,12.8c0,3.39,2.75,6.14,6.14,6.14s6.14-2.75,6.14-6.14-2.75-6.14-6.14-6.14-6.14,2.75-6.14,6.14Z"/><path class="cls-35" d="M583.58,173.09c0,5.54,4.49,10.03,10.03,10.03s10.03-4.49,10.03-10.03-4.49-10.03-10.03-10.03-10.03,4.49-10.03,10.03Z"/><path class="cls-8" d="M669.21,25.38c0,4.25,3.44,7.69,7.69,7.69s7.69-3.44,7.69-7.69-3.44-7.69-7.69-7.69-7.69,3.44-7.69,7.69Z"/><path class="cls-49" d="M781.67,111.34c0,5.54,4.49,10.03,10.03,10.03s10.03-4.49,10.03-10.03-4.49-10.03-10.03-10.03-10.03,4.49-10.03,10.03Z"/><path class="cls-68" d="M838.86,35.33c0,1.89,1.53,3.42,3.42,3.42s3.42-1.53,3.42-3.42-1.53-3.42-3.42-3.42-3.42,1.53-3.42,3.42Z"/><path class="cls-39" d="M869.13,64.01c0,1.89,1.53,3.42,3.42,3.42s3.42-1.53,3.42-3.42-1.53-3.42-3.42-3.42-3.42,1.53-3.42,3.42Z"/><path class="cls-54" d="M241.93,76.07c0,2.78,2.26,5.04,5.04,5.04s5.04-2.26,5.04-5.04-2.26-5.04-5.04-5.04-5.04,2.26-5.04,5.04Z"/><path class="cls-57" d="M536.27,213.05c0,2.78,2.26,5.04,5.04,5.04s5.04-2.26,5.04-5.04-2.26-5.04-5.04-5.04-5.04,2.26-5.04,5.04Z"/><path class="cls-1" d="M415.49,375.04c0,4.82,3.9,8.72,8.72,8.72s8.72-3.9,8.72-8.72-3.9-8.72-8.72-8.72-8.72,3.9-8.72,8.72Z"/></g></g></g></g></g></svg>